<?xml version="1.0" encoding="utf-8"?>
<!-- Generator: Adobe Illustrator 25.4.1, SVG Export Plug-In . SVG Version: 6.00 Build 0)  -->
<svg version="1.1" id="Layer_1" xmlns="http://www.w3.org/2000/svg" xmlns:xlink="http://www.w3.org/1999/xlink" x="0px" y="0px"
	 viewBox="0 0 1125 987" style="enable-background:new 0 0 1125 987;" xml:space="preserve">
<style type="text/css">
	.st0{fill:url(#SVGID_1_);stroke:#000000;stroke-width:9;stroke-miterlimit:10;}
	.st1{fill:url(#SVGID_00000168090492629331548430000004486064870743351732_);stroke:#000000;stroke-miterlimit:10;}
	.st2{fill:url(#SVGID_00000018918982525967715710000014086308792860594840_);stroke:#000000;stroke-miterlimit:10;}
	.st3{fill:url(#SVGID_00000076593536792137777990000006195965683741548729_);stroke:#000000;stroke-miterlimit:10;}
	.st4{fill:url(#SVGID_00000054248259114556363480000017237875789339810440_);stroke:#000000;stroke-miterlimit:10;}
</style>
<radialGradient id="SVGID_1_" cx="779.556" cy="503.6114" r="358.705" gradientUnits="userSpaceOnUse">
	<stop  offset="0.0531" style="stop-color:#000000"/>
	<stop  offset="0.8392" style="stop-color:#F2F2F2"/>
</radialGradient>
<path class="st0" d="M1079.5,503c0,333.86-316.5,421.5-585,408.5c-40.03-1.94,324-74.14,324-408s-422.5-409-324-409
	C773.13,94.5,1079.5,169.14,1079.5,503z"/>
<radialGradient id="SVGID_00000041255888848151156690000002745009614545171870_" cx="536.749" cy="437.399" r="337.1244" gradientTransform="matrix(0.9563 0.2923 -0.2923 0.9563 154.0315 -119.3669)" gradientUnits="userSpaceOnUse">
	<stop  offset="0.1238" style="stop-color:#FCEE21"/>
	<stop  offset="0.9385" style="stop-color:#ED1C24"/>
</radialGradient>
<polygon style="fill:url(#SVGID_00000041255888848151156690000002745009614545171870_);stroke:#000000;stroke-miterlimit:10;" points="
	635.53,141.6 674.4,379.67 892.56,482.61 678.15,593.15 647.66,832.43 476.28,662.68 239.28,707.62 347.76,492.17 231.78,280.66 
	470.21,317.26 "/>
<radialGradient id="SVGID_00000021801467616798434510000008022042988812722107_" cx="632.8694" cy="532.7955" r="340.7844" gradientUnits="userSpaceOnUse">
	<stop  offset="0.2453" style="stop-color:#ED1E79"/>
	<stop  offset="0.9849" style="stop-color:#93278F"/>
</radialGradient>
<polygon style="fill:url(#SVGID_00000021801467616798434510000008022042988812722107_);stroke:#000000;stroke-miterlimit:10;" points="
	377.61,825.65 443.3,593.55 289.33,407.85 530.38,398.6 659.41,194.78 742.7,421.17 976.41,480.91 786.83,630.08 802.24,870.81 
	601.79,736.61 "/>
<radialGradient id="SVGID_00000171718637580553659520000001125215857829458072_" cx="632.9415" cy="563.7538" r="148.7077" gradientUnits="userSpaceOnUse">
	<stop  offset="0.2663" style="stop-color:#ED1C24"/>
	<stop  offset="0.7861" style="stop-color:#FCEE21"/>
</radialGradient>
<polygon style="fill:url(#SVGID_00000171718637580553659520000001125215857829458072_);stroke:#000000;stroke-miterlimit:10;" points="
	763.83,672.04 661.89,645.3 582.08,714.11 576.01,608.91 485.9,554.26 584.09,515.98 608.21,413.4 674.96,494.94 779.98,486.19 
	723.05,574.87 "/>
<radialGradient id="SVGID_00000039122299294474558050000010758048108676240796_" cx="694" cy="590.8462" r="147.2785" gradientUnits="userSpaceOnUse">
	<stop  offset="0.1694" style="stop-color:#ED1E79"/>
	<stop  offset="0.715" style="stop-color:#93278F"/>
</radialGradient>
<polygon style="fill:url(#SVGID_00000039122299294474558050000010758048108676240796_);stroke:#000000;stroke-miterlimit:10;" points="
	694,447.31 740.64,541.81 844.93,556.96 769.46,630.52 787.28,734.39 694,685.35 600.72,734.39 618.54,630.52 543.07,556.96 
	647.36,541.81 "/>
</svg>
